<svg xmlns="http://www.w3.org/2000/svg" width="1100" height="540" viewBox="0 0 1100 540"><defs><marker id="ahg" markerWidth="11" markerHeight="11" refX="8" refY="5" orient="auto"><path d="M0,0 L10,5 L0,10 z" fill="#2e8b57"/></marker><marker id="ahr" markerWidth="11" markerHeight="11" refX="8" refY="5" orient="auto"><path d="M0,0 L10,5 L0,10 z" fill="#e02718"/></marker><marker id="ahk" markerWidth="11" markerHeight="11" refX="8" refY="5" orient="auto"><path d="M0,0 L10,5 L0,10 z" fill="#6b6a62"/></marker></defs><rect x="0" y="0" width="1100" height="540" fill="#f2f1ec"/><rect x="40" y="70" width="420" height="420" rx="14" ry="14" fill="#f2f1ec" stroke="#16150f" stroke-width="2"/><rect x="40" y="70" width="7" height="420" rx="3.5" ry="3.5" fill="#e02718"/><text x="250" y="114" text-anchor="middle" font-family="Helvetica Neue, Helvetica, Arial, sans-serif" font-size="26" font-weight="bold" fill="#16150f">LIBRARY</text><text x="250" y="144" text-anchor="middle" font-family="Helvetica Neue, Helvetica, Arial, sans-serif" font-size="18" font-weight="normal" fill="#6b6a62">all presentations &amp; songs</text><rect x="70" y="180" width="360" height="42" rx="8" ry="8" fill="#eceae2" stroke="#d8d6cc" stroke-width="1.5"/><text x="250" y="208" text-anchor="middle" font-family="Helvetica Neue, Helvetica, Arial, sans-serif" font-size="18" font-weight="bold" fill="#16150f">Worship song</text><rect x="70" y="236" width="360" height="42" rx="8" ry="8" fill="#eceae2" stroke="#d8d6cc" stroke-width="1.5"/><text x="250" y="264" text-anchor="middle" font-family="Helvetica Neue, Helvetica, Arial, sans-serif" font-size="18" font-weight="bold" fill="#16150f">Praise song</text><rect x="70" y="292" width="360" height="42" rx="8" ry="8" fill="#eceae2" stroke="#d8d6cc" stroke-width="1.5"/><text x="250" y="320" text-anchor="middle" font-family="Helvetica Neue, Helvetica, Arial, sans-serif" font-size="18" font-weight="bold" fill="#16150f">Sermon slides</text><rect x="70" y="348" width="360" height="42" rx="8" ry="8" fill="#eceae2" stroke="#d8d6cc" stroke-width="1.5"/><text x="250" y="376" text-anchor="middle" font-family="Helvetica Neue, Helvetica, Arial, sans-serif" font-size="18" font-weight="bold" fill="#16150f">Announcement</text><rect x="70" y="404" width="360" height="42" rx="8" ry="8" fill="#eceae2" stroke="#d8d6cc" stroke-width="1.5"/><text x="250" y="432" text-anchor="middle" font-family="Helvetica Neue, Helvetica, Arial, sans-serif" font-size="18" font-weight="normal" fill="#6b6a62">… (alphabetical)</text><line x1="480" y1="280" x2="620" y2="280" stroke="#6b6a62" stroke-width="3.4" marker-end="url(#ahk)"/><text x="550" y="262" text-anchor="middle" font-family="Helvetica Neue, Helvetica, Arial, sans-serif" font-size="17" font-weight="normal" fill="#6b6a62">select &amp; drag in</text><rect x="640" y="70" width="420" height="420" rx="14" ry="14" fill="#f2f1ec" stroke="#16150f" stroke-width="2"/><rect x="640" y="70" width="7" height="420" rx="3.5" ry="3.5" fill="#2e8b57"/><text x="850" y="114" text-anchor="middle" font-family="Helvetica Neue, Helvetica, Arial, sans-serif" font-size="26" font-weight="bold" fill="#16150f">PLAYLIST</text><text x="850" y="144" text-anchor="middle" font-family="Helvetica Neue, Helvetica, Arial, sans-serif" font-size="18" font-weight="normal" fill="#6b6a62">one service – in order</text><rect x="670" y="180" width="360" height="48" rx="8" ry="8" fill="#eceae2" stroke="#d8d6cc" stroke-width="1.5"/><circle cx="696" cy="204" r="15" fill="#2e8b57"/><text x="696" y="210" text-anchor="middle" font-family="Helvetica Neue, Helvetica, Arial, sans-serif" font-size="17" font-weight="bold" fill="#fff">1</text><text x="871" y="210" text-anchor="middle" font-family="Helvetica Neue, Helvetica, Arial, sans-serif" font-size="18" font-weight="bold" fill="#16150f">Pre Service Essentials</text><rect x="670" y="244" width="360" height="48" rx="8" ry="8" fill="#eceae2" stroke="#d8d6cc" stroke-width="1.5"/><circle cx="696" cy="268" r="15" fill="#2e8b57"/><text x="696" y="274" text-anchor="middle" font-family="Helvetica Neue, Helvetica, Arial, sans-serif" font-size="17" font-weight="bold" fill="#fff">2</text><text x="871" y="274" text-anchor="middle" font-family="Helvetica Neue, Helvetica, Arial, sans-serif" font-size="18" font-weight="bold" fill="#16150f">Song</text><rect x="670" y="308" width="360" height="48" rx="8" ry="8" fill="#eceae2" stroke="#d8d6cc" stroke-width="1.5"/><circle cx="696" cy="332" r="15" fill="#2e8b57"/><text x="696" y="338" text-anchor="middle" font-family="Helvetica Neue, Helvetica, Arial, sans-serif" font-size="17" font-weight="bold" fill="#fff">3</text><text x="871" y="338" text-anchor="middle" font-family="Helvetica Neue, Helvetica, Arial, sans-serif" font-size="18" font-weight="bold" fill="#16150f">Sermon</text><rect x="670" y="372" width="360" height="48" rx="8" ry="8" fill="#eceae2" stroke="#d8d6cc" stroke-width="1.5"/><circle cx="696" cy="396" r="15" fill="#2e8b57"/><text x="696" y="402" text-anchor="middle" font-family="Helvetica Neue, Helvetica, Arial, sans-serif" font-size="17" font-weight="bold" fill="#fff">4</text><text x="871" y="402" text-anchor="middle" font-family="Helvetica Neue, Helvetica, Arial, sans-serif" font-size="18" font-weight="bold" fill="#16150f">After Sermon</text></svg>