<svg xmlns="http://www.w3.org/2000/svg" width="1520" height="250" viewBox="0 0 1520 250"><defs><marker id="ah" markerWidth="11" markerHeight="11" refX="8" refY="5" orient="auto"><path d="M0,0 L10,5 L0,10 z" fill="#6b6a62"/></marker></defs><rect x="0" y="0" width="1520" height="250" fill="#f2f1ec"/><rect x="30" y="70" width="185" height="120" rx="12" ry="12" fill="#f2f1ec" stroke="#16150f" stroke-width="2"/><text x="122.5" y="126.0" text-anchor="middle" font-family="Helvetica Neue, Helvetica, Arial, sans-serif" font-size="25" font-weight="bold" fill="#16150f">Gain</text><text x="122.5" y="156.0" text-anchor="middle" font-family="Helvetica Neue, Helvetica, Arial, sans-serif" font-size="17" fill="#6b6a62">Eingangspegel</text><line x1="215" y1="130.0" x2="237" y2="130.0" stroke="#6b6a62" stroke-width="3.0" marker-end="url(#ah)"/><rect x="239" y="70" width="185" height="120" rx="12" ry="12" fill="#f2f1ec" stroke="#16150f" stroke-width="2"/><text x="331.5" y="126.0" text-anchor="middle" font-family="Helvetica Neue, Helvetica, Arial, sans-serif" font-size="25" font-weight="bold" fill="#16150f">Gate</text><text x="331.5" y="156.0" text-anchor="middle" font-family="Helvetica Neue, Helvetica, Arial, sans-serif" font-size="17" fill="#6b6a62">Störgeräusche raus</text><line x1="424" y1="130.0" x2="446" y2="130.0" stroke="#6b6a62" stroke-width="3.0" marker-end="url(#ah)"/><rect x="448" y="70" width="185" height="120" rx="12" ry="12" fill="#f2f1ec" stroke="#16150f" stroke-width="2"/><text x="540.5" y="126.0" text-anchor="middle" font-family="Helvetica Neue, Helvetica, Arial, sans-serif" font-size="25" font-weight="bold" fill="#16150f">Kompressor</text><text x="540.5" y="156.0" text-anchor="middle" font-family="Helvetica Neue, Helvetica, Arial, sans-serif" font-size="17" fill="#6b6a62">Pegel ausgleichen</text><line x1="633" y1="130.0" x2="655" y2="130.0" stroke="#6b6a62" stroke-width="3.0" marker-end="url(#ah)"/><rect x="657" y="70" width="185" height="120" rx="12" ry="12" fill="#f2f1ec" stroke="#16150f" stroke-width="2"/><text x="749.5" y="126.0" text-anchor="middle" font-family="Helvetica Neue, Helvetica, Arial, sans-serif" font-size="25" font-weight="bold" fill="#16150f">EQ</text><text x="749.5" y="156.0" text-anchor="middle" font-family="Helvetica Neue, Helvetica, Arial, sans-serif" font-size="17" fill="#6b6a62">Klang formen</text><line x1="842" y1="130.0" x2="864" y2="130.0" stroke="#6b6a62" stroke-width="3.0" marker-end="url(#ah)"/><rect x="866" y="70" width="185" height="120" rx="12" ry="12" fill="#f2f1ec" stroke="#16150f" stroke-width="2"/><text x="958.5" y="126.0" text-anchor="middle" font-family="Helvetica Neue, Helvetica, Arial, sans-serif" font-size="25" font-weight="bold" fill="#16150f">Fader</text><text x="958.5" y="156.0" text-anchor="middle" font-family="Helvetica Neue, Helvetica, Arial, sans-serif" font-size="17" fill="#6b6a62">Lautstärke im Mix</text><line x1="1051" y1="130.0" x2="1073" y2="130.0" stroke="#6b6a62" stroke-width="3.0" marker-end="url(#ah)"/><rect x="1075" y="70" width="185" height="120" rx="12" ry="12" fill="#f2f1ec" stroke="#16150f" stroke-width="2"/><text x="1167.5" y="126.0" text-anchor="middle" font-family="Helvetica Neue, Helvetica, Arial, sans-serif" font-size="25" font-weight="bold" fill="#16150f">Sends</text><text x="1167.5" y="156.0" text-anchor="middle" font-family="Helvetica Neue, Helvetica, Arial, sans-serif" font-size="17" fill="#6b6a62">an Monitor/Effekt</text><line x1="1260" y1="130.0" x2="1282" y2="130.0" stroke="#6b6a62" stroke-width="3.0" marker-end="url(#ah)"/><rect x="1284" y="70" width="185" height="120" rx="12" ry="12" fill="#16150f" stroke="#16150f" stroke-width="2"/><text x="1376.5" y="126.0" text-anchor="middle" font-family="Helvetica Neue, Helvetica, Arial, sans-serif" font-size="25" font-weight="bold" fill="#f2f1ec">Bus / Master</text><text x="1376.5" y="156.0" text-anchor="middle" font-family="Helvetica Neue, Helvetica, Arial, sans-serif" font-size="17" fill="#f2f1ec">in den Mix</text><text x="30" y="40" text-anchor="start" font-family="Helvetica Neue, Helvetica, Arial, sans-serif" font-size="22" font-weight="bold" fill="#16150f">Der Weg durch einen Kanal (links nach rechts)</text></svg>