<svg xmlns="http://www.w3.org/2000/svg" width="1500" height="620" viewBox="0 0 1500 620"><defs><marker id="ah" markerWidth="11" markerHeight="11" refX="8" refY="5" orient="auto"><path d="M0,0 L10,5 L0,10 z" fill="#6b6a62"/></marker><marker id="ahr" markerWidth="11" markerHeight="11" refX="8" refY="5" orient="auto"><path d="M0,0 L10,5 L0,10 z" fill="#e02718"/></marker></defs><rect x="0" y="0" width="1500" height="620" fill="#f2f1ec"/><text x="750" y="44.0" text-anchor="middle" font-family="Helvetica Neue, Helvetica, Arial, sans-serif" font-size="26" font-weight="bold" fill="#16150f">Das Meter lesen (digital, dBFS)</text><rect x="170.0" y="150" width="812.0" height="46" rx="0" ry="0" fill="#2e8b57" stroke="#2e8b57" stroke-width="1"/><rect x="982.0" y="150" width="232.0" height="46" rx="0" ry="0" fill="#e0a800" stroke="#e0a800" stroke-width="1"/><rect x="1214.0" y="150" width="116.0" height="46" rx="0" ry="0" fill="#e02718" stroke="#e02718" stroke-width="1"/><rect x="170.0" y="150" width="1160.0" height="46" rx="4" ry="4" fill="none" stroke="#16150f" stroke-width="2"/><rect x="1344.0" y="150" width="110" height="46" rx="6" ry="6" fill="#e02718" stroke="#16150f" stroke-width="2"/><text x="1399.0" y="182.0" text-anchor="middle" font-family="Helvetica Neue, Helvetica, Arial, sans-serif" font-size="24" font-weight="bold" fill="#faf9f5">CLIP</text><line x1="170.0" y1="196" x2="170.0" y2="208" stroke="#16150f" stroke-width="2"/><text x="170.0" y="234.0" text-anchor="middle" font-family="Helvetica Neue, Helvetica, Arial, sans-serif" font-size="20" font-weight="bold" fill="#16150f">−60</text><line x1="402.0" y1="196" x2="402.0" y2="208" stroke="#16150f" stroke-width="2"/><text x="402.0" y="234.0" text-anchor="middle" font-family="Helvetica Neue, Helvetica, Arial, sans-serif" font-size="20" font-weight="bold" fill="#16150f">−48</text><line x1="634.0" y1="196" x2="634.0" y2="208" stroke="#16150f" stroke-width="2"/><text x="634.0" y="234.0" text-anchor="middle" font-family="Helvetica Neue, Helvetica, Arial, sans-serif" font-size="20" font-weight="bold" fill="#16150f">−36</text><line x1="866.0" y1="196" x2="866.0" y2="208" stroke="#16150f" stroke-width="2"/><text x="866.0" y="234.0" text-anchor="middle" font-family="Helvetica Neue, Helvetica, Arial, sans-serif" font-size="20" font-weight="bold" fill="#16150f">−24</text><line x1="982.0" y1="196" x2="982.0" y2="208" stroke="#16150f" stroke-width="2"/><text x="982.0" y="234.0" text-anchor="middle" font-family="Helvetica Neue, Helvetica, Arial, sans-serif" font-size="20" font-weight="bold" fill="#16150f">−18</text><line x1="1098.0" y1="196" x2="1098.0" y2="208" stroke="#16150f" stroke-width="2"/><text x="1098.0" y="234.0" text-anchor="middle" font-family="Helvetica Neue, Helvetica, Arial, sans-serif" font-size="20" font-weight="bold" fill="#16150f">−12</text><line x1="1214.0" y1="196" x2="1214.0" y2="208" stroke="#16150f" stroke-width="2"/><text x="1214.0" y="234.0" text-anchor="middle" font-family="Helvetica Neue, Helvetica, Arial, sans-serif" font-size="20" font-weight="bold" fill="#16150f">−6</text><line x1="1272.0" y1="196" x2="1272.0" y2="208" stroke="#16150f" stroke-width="2"/><text x="1272.0" y="234.0" text-anchor="middle" font-family="Helvetica Neue, Helvetica, Arial, sans-serif" font-size="20" font-weight="bold" fill="#16150f">−3</text><line x1="1330.0" y1="196" x2="1330.0" y2="208" stroke="#16150f" stroke-width="2"/><text x="1330.0" y="234.0" text-anchor="middle" font-family="Helvetica Neue, Helvetica, Arial, sans-serif" font-size="20" font-weight="bold" fill="#16150f">0</text><path d="M 982.0 138 L 982.0 124 L 1098.0 124 L 1098.0 138" fill="none" stroke="#16150f" stroke-width="3"/><text x="1040.0" y="110.0" text-anchor="middle" font-family="Helvetica Neue, Helvetica, Arial, sans-serif" font-size="20" font-weight="bold" fill="#16150f">Ziel für die Spitzen</text><text x="576.0" y="132.0" text-anchor="middle" font-family="Helvetica Neue, Helvetica, Arial, sans-serif" font-size="18" fill="#2e8b57">grün: sauber, genug Reserve</text><text x="1399.0" y="132.0" text-anchor="middle" font-family="Helvetica Neue, Helvetica, Arial, sans-serif" font-size="18" font-weight="bold" fill="#e02718">0 dBFS = Ende</text><text x="60" y="360.0" text-anchor="start" font-family="Helvetica Neue, Helvetica, Arial, sans-serif" font-size="24" font-weight="bold" fill="#16150f">Peak</text><rect x="170.0" y="330" width="889.3333333333335" height="40" rx="3" ry="3" fill="#16150f" stroke="#16150f" stroke-width="1"/><rect x="1114.3333333333335" y="324" width="6" height="52" rx="1" ry="1" fill="#e02718" stroke="#e02718" stroke-width="1"/><text x="1131.3333333333335" y="318.0" text-anchor="start" font-family="Helvetica Neue, Helvetica, Arial, sans-serif" font-size="17" font-weight="bold" fill="#e02718">Peak-Hold</text><text x="60" y="440.0" text-anchor="start" font-family="Helvetica Neue, Helvetica, Arial, sans-serif" font-size="24" font-weight="bold" fill="#6b6a62">Ø</text><text x="60" y="466.0" text-anchor="start" font-family="Helvetica Neue, Helvetica, Arial, sans-serif" font-size="16" font-weight="bold" fill="#6b6a62">RMS</text><rect x="170.0" y="410" width="657.3333333333334" height="40" rx="3" ry="3" fill="#6b6a62" stroke="#6b6a62" stroke-width="1"/><text x="866.0" y="438.0" text-anchor="start" font-family="Helvetica Neue, Helvetica, Arial, sans-serif" font-size="19" font-weight="bold" fill="#6b6a62">Durchschnitt — so laut wirkt es</text><text x="1137.3333333333335" y="360.0" text-anchor="start" font-family="Helvetica Neue, Helvetica, Arial, sans-serif" font-size="19" font-weight="bold" fill="#16150f">kurze Spitzen</text><text x="750" y="540.0" text-anchor="middle" font-family="Helvetica Neue, Helvetica, Arial, sans-serif" font-size="20" fill="#16150f">Peak = die kurzen Spitzen (wichtig gegen Clipping). Durchschnitt = was wir als Lautstärke hören.</text><text x="750" y="575.0" text-anchor="middle" font-family="Helvetica Neue, Helvetica, Arial, sans-serif" font-size="20" fill="#16150f">Die meisten Pult-Meter zeigen Peaks — deshalb stellst du den Gain nach den Spitzen ein.</text></svg>