<svg xmlns="http://www.w3.org/2000/svg" width="1600" height="780" viewBox="0 0 1600 780"><defs><marker id="ah" markerWidth="11" markerHeight="11" refX="8" refY="5" orient="auto"><path d="M0,0 L10,5 L0,10 z" fill="#6b6a62"/></marker><marker id="ar" markerWidth="11" markerHeight="11" refX="8" refY="5" orient="auto"><path d="M0,0 L10,5 L0,10 z" fill="#e02718"/></marker></defs><rect x="0" y="0" width="1600" height="780" fill="#f2f1ec"/><text x="40" y="38" text-anchor="start" font-family="Helvetica Neue, Helvetica, Arial, sans-serif" font-size="22" font-weight="bold" fill="#16150f">Wege aus dem Pult</text><rect x="40" y="282" width="230" height="180" rx="12" ry="12" fill="#16150f" stroke="#16150f" stroke-width="2"/><text x="155.0" y="369.0" text-anchor="middle" font-family="Helvetica Neue, Helvetica, Arial, sans-serif" font-size="22" font-weight="bold" fill="#f2f1ec">Mischpult</text><text x="155.0" y="394.0" text-anchor="middle" font-family="Helvetica Neue, Helvetica, Arial, sans-serif" font-size="16" fill="#f2f1ec">Ausgänge</text><rect x="600" y="40" width="200" height="95" rx="12" ry="12" fill="#f2f1ec" stroke="#16150f" stroke-width="2"/><text x="700.0" y="84.5" text-anchor="middle" font-family="Helvetica Neue, Helvetica, Arial, sans-serif" font-size="22" font-weight="bold" fill="#16150f">Endstufe</text><text x="700.0" y="109.5" text-anchor="middle" font-family="Helvetica Neue, Helvetica, Arial, sans-serif" font-size="16" fill="#6b6a62">Verstärker</text><rect x="1180" y="40" width="380" height="95" rx="12" ry="12" fill="#f2f1ec" stroke="#16150f" stroke-width="2"/><text x="1370.0" y="84.5" text-anchor="middle" font-family="Helvetica Neue, Helvetica, Arial, sans-serif" font-size="22" font-weight="bold" fill="#16150f">Main PA</text><text x="1370.0" y="109.5" text-anchor="middle" font-family="Helvetica Neue, Helvetica, Arial, sans-serif" font-size="18" font-weight="bold" fill="#16150f">PASSIV – mit Endstufe</text><line x1="270" y1="372.0" x2="596" y2="87.5" stroke="#6b6a62" stroke-width="3.0" marker-end="url(#ah)"/><line x1="800" y1="87.5" x2="1176" y2="87.5" stroke="#6b6a62" stroke-width="3.0" marker-end="url(#ah)"/><rect x="385.7" y="220" width="108.6" height="21" rx="4" ry="4" fill="#f2f1ec" stroke="#f2f1ec" stroke-width="0"/><text x="440" y="236" text-anchor="middle" font-family="Helvetica Neue, Helvetica, Arial, sans-serif" font-size="16" font-weight="bold" fill="#e02718">Line-Signal</text><rect x="901.3" y="59.5" width="177.4" height="21" rx="4" ry="4" fill="#f2f1ec" stroke="#f2f1ec" stroke-width="0"/><text x="990.0" y="75.5" text-anchor="middle" font-family="Helvetica Neue, Helvetica, Arial, sans-serif" font-size="16" font-weight="bold" fill="#e02718">Lautsprecher-Signal</text><rect x="1180" y="180" width="380" height="95" rx="12" ry="12" fill="#f2f1ec" stroke="#16150f" stroke-width="2"/><text x="1370.0" y="224.5" text-anchor="middle" font-family="Helvetica Neue, Helvetica, Arial, sans-serif" font-size="22" font-weight="bold" fill="#16150f">Main PA</text><text x="1370.0" y="249.5" text-anchor="middle" font-family="Helvetica Neue, Helvetica, Arial, sans-serif" font-size="18" font-weight="bold" fill="#16150f">AKTIV – Verstärker eingebaut</text><line x1="270" y1="372.0" x2="1176" y2="227.5" stroke="#6b6a62" stroke-width="3.0" marker-end="url(#ah)"/><rect x="665.7" y="284" width="108.6" height="21" rx="4" ry="4" fill="#f2f1ec" stroke="#f2f1ec" stroke-width="0"/><text x="720" y="300" text-anchor="middle" font-family="Helvetica Neue, Helvetica, Arial, sans-serif" font-size="16" font-weight="bold" fill="#e02718">Line-Signal</text><line x1="1370.0" y1="135" x2="1370.0" y2="180" stroke="#6b6a62" stroke-width="1.5" stroke-dasharray="4,4"/><rect x="1285.0" y="141.5" width="170" height="32" rx="16" ry="16" fill="#f2f1ec" stroke="#e02718" stroke-width="2"/><text x="1370.0" y="162.5" text-anchor="middle" font-family="Helvetica Neue, Helvetica, Arial, sans-serif" font-size="14" font-weight="bold" fill="#e02718">ENTWEDER / ODER</text><rect x="1180" y="330" width="380" height="95" rx="12" ry="12" fill="#f2f1ec" stroke="#16150f" stroke-width="2"/><text x="1370.0" y="374.5" text-anchor="middle" font-family="Helvetica Neue, Helvetica, Arial, sans-serif" font-size="22" font-weight="bold" fill="#16150f">Monitore</text><text x="1370.0" y="399.5" text-anchor="middle" font-family="Helvetica Neue, Helvetica, Arial, sans-serif" font-size="16" fill="#6b6a62">Bühne · Wedge</text><line x1="270" y1="372.0" x2="1176" y2="377.5" stroke="#6b6a62" stroke-width="3.0" marker-end="url(#ah)"/><rect x="665.7" y="356" width="108.6" height="21" rx="4" ry="4" fill="#f2f1ec" stroke="#f2f1ec" stroke-width="0"/><text x="720" y="372" text-anchor="middle" font-family="Helvetica Neue, Helvetica, Arial, sans-serif" font-size="16" font-weight="bold" fill="#e02718">Line-Signal</text><rect x="1180" y="470" width="380" height="95" rx="12" ry="12" fill="#f2f1ec" stroke="#16150f" stroke-width="2"/><text x="1370.0" y="514.5" text-anchor="middle" font-family="Helvetica Neue, Helvetica, Arial, sans-serif" font-size="22" font-weight="bold" fill="#16150f">In-Ears</text><text x="1370.0" y="539.5" text-anchor="middle" font-family="Helvetica Neue, Helvetica, Arial, sans-serif" font-size="17" font-weight="bold" fill="#16150f">kabelgebunden</text><line x1="270" y1="372.0" x2="1176" y2="517.5" stroke="#6b6a62" stroke-width="3.0" marker-end="url(#ah)"/><rect x="665.7" y="436" width="108.6" height="21" rx="4" ry="4" fill="#f2f1ec" stroke="#f2f1ec" stroke-width="0"/><text x="720" y="452" text-anchor="middle" font-family="Helvetica Neue, Helvetica, Arial, sans-serif" font-size="16" font-weight="bold" fill="#e02718">Line-Signal</text><rect x="600" y="610" width="200" height="95" rx="12" ry="12" fill="#f2f1ec" stroke="#16150f" stroke-width="2"/><text x="700.0" y="654.5" text-anchor="middle" font-family="Helvetica Neue, Helvetica, Arial, sans-serif" font-size="22" font-weight="bold" fill="#16150f">Sender</text><text x="700.0" y="679.5" text-anchor="middle" font-family="Helvetica Neue, Helvetica, Arial, sans-serif" font-size="16" fill="#6b6a62">Funkstrecke</text><rect x="1180" y="610" width="380" height="95" rx="12" ry="12" fill="#f2f1ec" stroke="#16150f" stroke-width="2"/><text x="1370.0" y="654.5" text-anchor="middle" font-family="Helvetica Neue, Helvetica, Arial, sans-serif" font-size="22" font-weight="bold" fill="#16150f">In-Ears</text><text x="1370.0" y="679.5" text-anchor="middle" font-family="Helvetica Neue, Helvetica, Arial, sans-serif" font-size="17" font-weight="bold" fill="#16150f">wireless</text><line x1="270" y1="372.0" x2="596" y2="657.5" stroke="#6b6a62" stroke-width="3.0" marker-end="url(#ah)"/><rect x="385.7" y="500" width="108.6" height="21" rx="4" ry="4" fill="#f2f1ec" stroke="#f2f1ec" stroke-width="0"/><text x="440" y="516" text-anchor="middle" font-family="Helvetica Neue, Helvetica, Arial, sans-serif" font-size="16" font-weight="bold" fill="#e02718">Line-Signal</text><path d="M 830,645.5 A 12,12 0 0,1 830,669.5" fill="none" stroke="#e02718" stroke-width="3"/><path d="M 830,635.5 A 22,22 0 0,1 830,679.5" fill="none" stroke="#e02718" stroke-width="3"/><path d="M 830,625.5 A 32,32 0 0,1 830,689.5" fill="none" stroke="#e02718" stroke-width="3"/><line x1="874" y1="657.5" x2="1176" y2="657.5" stroke="#e02718" stroke-width="3.0" marker-end="url(#ar)" stroke-dasharray="8,7"/><rect x="955.5" y="627.5" width="143.0" height="21" rx="4" ry="4" fill="#f2f1ec" stroke="#f2f1ec" stroke-width="0"/><text x="1027.0" y="643.5" text-anchor="middle" font-family="Helvetica Neue, Helvetica, Arial, sans-serif" font-size="16" font-weight="bold" fill="#e02718">Funk (wireless)</text></svg>