<svg xmlns="http://www.w3.org/2000/svg" width="1520" height="520" viewBox="0 0 1520 520"><defs><marker id="ah" markerWidth="11" markerHeight="11" refX="8" refY="5" orient="auto"><path d="M0,0 L10,5 L0,10 z" fill="#6b6a62"/></marker></defs><rect x="0" y="0" width="1520" height="520" fill="#f2f1ec"/><text x="40" y="42" text-anchor="start" font-family="Helvetica Neue, Helvetica, Arial, sans-serif" font-size="22" font-weight="bold" fill="#16150f">So wird verbunden</text><rect x="40" y="95" width="1440" height="380" rx="22" ry="22" fill="#f2f1ec" stroke="#16150f" stroke-width="2" stroke-dasharray="9,7"/><rect x="545" y="78" width="430" height="34" rx="16" ry="16" fill="#f2f1ec" stroke="#16150f" stroke-width="2"/><text x="760" y="101" text-anchor="middle" font-family="Helvetica Neue, Helvetica, Arial, sans-serif" font-size="16" font-weight="bold" fill="#16150f">Gleiches WLAN / Netzwerk</text><rect x="110" y="205" width="300" height="150" rx="12" ry="12" fill="#16150f" stroke="#16150f" stroke-width="2"/><text x="260.0" y="276.0" text-anchor="middle" font-family="Helvetica Neue, Helvetica, Arial, sans-serif" font-size="23" font-weight="bold" fill="#f2f1ec">Mischpult</text><text x="260.0" y="304.0" text-anchor="middle" font-family="Helvetica Neue, Helvetica, Arial, sans-serif" font-size="17" fill="#f2f1ec">z. B. SQ / X-Air</text><rect x="610" y="205" width="300" height="150" rx="12" ry="12" fill="#f2f1ec" stroke="#16150f" stroke-width="2"/><text x="760.0" y="288.0" text-anchor="middle" font-family="Helvetica Neue, Helvetica, Arial, sans-serif" font-size="23" font-weight="bold" fill="#16150f">WLAN-Router</text><rect x="1110" y="205" width="300" height="150" rx="12" ry="12" fill="#f2f1ec" stroke="#16150f" stroke-width="2"/><text x="1260.0" y="276.0" text-anchor="middle" font-family="Helvetica Neue, Helvetica, Arial, sans-serif" font-size="23" font-weight="bold" fill="#16150f">Tablet / Handy</text><text x="1260.0" y="304.0" text-anchor="middle" font-family="Helvetica Neue, Helvetica, Arial, sans-serif" font-size="17" fill="#6b6a62">Mixing Station</text><line x1="410" y1="280" x2="606" y2="280" stroke="#6b6a62" stroke-width="3.0" marker-end="url(#ah)"/><text x="508" y="266" text-anchor="middle" font-family="Helvetica Neue, Helvetica, Arial, sans-serif" font-size="15" font-weight="bold" fill="#e02718">Netzwerk / LAN</text><path d="M 948,268 A 12,12 0 0,1 948,292" fill="none" stroke="#16150f" stroke-width="3"/><path d="M 948,258 A 22,22 0 0,1 948,302" fill="none" stroke="#16150f" stroke-width="3"/><path d="M 948,248 A 32,32 0 0,1 948,312" fill="none" stroke="#16150f" stroke-width="3"/><line x1="996" y1="280" x2="1106" y2="280" stroke="#16150f" stroke-width="3.0" marker-end="url(#ah)" stroke-dasharray="8,6"/><text x="1018" y="262" text-anchor="middle" font-family="Helvetica Neue, Helvetica, Arial, sans-serif" font-size="15" font-weight="bold" fill="#e02718">WLAN</text></svg>