<svg xmlns="http://www.w3.org/2000/svg" width="1500" height="600" viewBox="0 0 1500 600"><defs><marker id="ah" markerWidth="11" markerHeight="11" refX="8" refY="5" orient="auto"><path d="M0,0 L10,5 L0,10 z" fill="#6b6a62"/></marker><marker id="ahr" markerWidth="11" markerHeight="11" refX="8" refY="5" orient="auto"><path d="M0,0 L10,5 L0,10 z" fill="#e02718"/></marker></defs><rect x="0" y="0" width="1500" height="600" fill="#f2f1ec"/><text x="250" y="46.0" text-anchor="middle" font-family="Helvetica Neue, Helvetica, Arial, sans-serif" font-size="28" font-weight="bold" fill="#16150f">Zu wenig Gain</text><rect x="215" y="120" width="70" height="320" rx="4" ry="4" fill="#e4e2da" stroke="#16150f" stroke-width="2"/><rect x="219" y="344.0" width="62" height="96.0" rx="0" ry="0" fill="#2e8b57" stroke="#2e8b57" stroke-width="0"/><rect x="215" y="74" width="70" height="32" rx="5" ry="5" fill="#e4e2da" stroke="#16150f" stroke-width="2"/><text x="250.0" y="97.0" text-anchor="middle" font-family="Helvetica Neue, Helvetica, Arial, sans-serif" font-size="17" font-weight="bold" fill="#6b6a62">CLIP</text><text x="203" y="127.0" text-anchor="end" font-family="Helvetica Neue, Helvetica, Arial, sans-serif" font-size="16" font-weight="bold" fill="#16150f">0</text><line x1="207" y1="120.0" x2="215" y2="120.0" stroke="#16150f" stroke-width="2"/><text x="203" y="191.0" text-anchor="end" font-family="Helvetica Neue, Helvetica, Arial, sans-serif" font-size="16" font-weight="bold" fill="#16150f">−12</text><line x1="207" y1="184.0" x2="215" y2="184.0" stroke="#16150f" stroke-width="2"/><text x="203" y="223.0" text-anchor="end" font-family="Helvetica Neue, Helvetica, Arial, sans-serif" font-size="16" font-weight="bold" fill="#16150f">−18</text><line x1="207" y1="216.0" x2="215" y2="216.0" stroke="#16150f" stroke-width="2"/><text x="203" y="319.0" text-anchor="end" font-family="Helvetica Neue, Helvetica, Arial, sans-serif" font-size="16" font-weight="bold" fill="#16150f">−36</text><line x1="207" y1="312.0" x2="215" y2="312.0" stroke="#16150f" stroke-width="2"/><text x="203" y="447.0" text-anchor="end" font-family="Helvetica Neue, Helvetica, Arial, sans-serif" font-size="16" font-weight="bold" fill="#16150f">−60</text><line x1="207" y1="440.0" x2="215" y2="440.0" stroke="#16150f" stroke-width="2"/><text x="250" y="495.0" text-anchor="middle" font-family="Helvetica Neue, Helvetica, Arial, sans-serif" font-size="20" fill="#16150f">rauscht · Fader muss weit hoch</text><text x="250" y="520.0" text-anchor="middle" font-family="Helvetica Neue, Helvetica, Arial, sans-serif" font-size="20" fill="#16150f">Gate/Kompressor reagieren nicht</text><text x="750" y="46.0" text-anchor="middle" font-family="Helvetica Neue, Helvetica, Arial, sans-serif" font-size="28" font-weight="bold" fill="#2e8b57">Richtig</text><rect x="715" y="120" width="70" height="320" rx="4" ry="4" fill="#e4e2da" stroke="#16150f" stroke-width="2"/><rect x="719" y="216.0" width="62" height="224.0" rx="0" ry="0" fill="#2e8b57" stroke="#2e8b57" stroke-width="0"/><rect x="719" y="194.66666666666666" width="62" height="21.333333333333343" rx="0" ry="0" fill="#e0a800" stroke="#e0a800" stroke-width="0"/><rect x="715" y="74" width="70" height="32" rx="5" ry="5" fill="#e4e2da" stroke="#16150f" stroke-width="2"/><text x="750.0" y="97.0" text-anchor="middle" font-family="Helvetica Neue, Helvetica, Arial, sans-serif" font-size="17" font-weight="bold" fill="#6b6a62">CLIP</text><text x="703" y="127.0" text-anchor="end" font-family="Helvetica Neue, Helvetica, Arial, sans-serif" font-size="16" font-weight="bold" fill="#16150f">0</text><line x1="707" y1="120.0" x2="715" y2="120.0" stroke="#16150f" stroke-width="2"/><text x="703" y="191.0" text-anchor="end" font-family="Helvetica Neue, Helvetica, Arial, sans-serif" font-size="16" font-weight="bold" fill="#16150f">−12</text><line x1="707" y1="184.0" x2="715" y2="184.0" stroke="#16150f" stroke-width="2"/><text x="703" y="223.0" text-anchor="end" font-family="Helvetica Neue, Helvetica, Arial, sans-serif" font-size="16" font-weight="bold" fill="#16150f">−18</text><line x1="707" y1="216.0" x2="715" y2="216.0" stroke="#16150f" stroke-width="2"/><text x="703" y="319.0" text-anchor="end" font-family="Helvetica Neue, Helvetica, Arial, sans-serif" font-size="16" font-weight="bold" fill="#16150f">−36</text><line x1="707" y1="312.0" x2="715" y2="312.0" stroke="#16150f" stroke-width="2"/><text x="703" y="447.0" text-anchor="end" font-family="Helvetica Neue, Helvetica, Arial, sans-serif" font-size="16" font-weight="bold" fill="#16150f">−60</text><line x1="707" y1="440.0" x2="715" y2="440.0" stroke="#16150f" stroke-width="2"/><text x="750" y="495.0" text-anchor="middle" font-family="Helvetica Neue, Helvetica, Arial, sans-serif" font-size="20" fill="#16150f">Spitzen bei −18 … −12 dBFS</text><text x="750" y="520.0" text-anchor="middle" font-family="Helvetica Neue, Helvetica, Arial, sans-serif" font-size="20" fill="#16150f">sauber, mit Reserve</text><text x="1250" y="46.0" text-anchor="middle" font-family="Helvetica Neue, Helvetica, Arial, sans-serif" font-size="28" font-weight="bold" fill="#e02718">Zu viel Gain</text><rect x="1215" y="120" width="70" height="320" rx="4" ry="4" fill="#e4e2da" stroke="#16150f" stroke-width="2"/><rect x="1219" y="216.0" width="62" height="224.0" rx="0" ry="0" fill="#2e8b57" stroke="#2e8b57" stroke-width="0"/><rect x="1219" y="152.0" width="62" height="64.0" rx="0" ry="0" fill="#e0a800" stroke="#e0a800" stroke-width="0"/><rect x="1219" y="120.0" width="62" height="32.0" rx="0" ry="0" fill="#e02718" stroke="#e02718" stroke-width="0"/><rect x="1215" y="74" width="70" height="32" rx="5" ry="5" fill="#e02718" stroke="#16150f" stroke-width="2"/><text x="1250.0" y="97.0" text-anchor="middle" font-family="Helvetica Neue, Helvetica, Arial, sans-serif" font-size="17" font-weight="bold" fill="#faf9f5">CLIP</text><text x="1203" y="127.0" text-anchor="end" font-family="Helvetica Neue, Helvetica, Arial, sans-serif" font-size="16" font-weight="bold" fill="#16150f">0</text><line x1="1207" y1="120.0" x2="1215" y2="120.0" stroke="#16150f" stroke-width="2"/><text x="1203" y="191.0" text-anchor="end" font-family="Helvetica Neue, Helvetica, Arial, sans-serif" font-size="16" font-weight="bold" fill="#16150f">−12</text><line x1="1207" y1="184.0" x2="1215" y2="184.0" stroke="#16150f" stroke-width="2"/><text x="1203" y="223.0" text-anchor="end" font-family="Helvetica Neue, Helvetica, Arial, sans-serif" font-size="16" font-weight="bold" fill="#16150f">−18</text><line x1="1207" y1="216.0" x2="1215" y2="216.0" stroke="#16150f" stroke-width="2"/><text x="1203" y="319.0" text-anchor="end" font-family="Helvetica Neue, Helvetica, Arial, sans-serif" font-size="16" font-weight="bold" fill="#16150f">−36</text><line x1="1207" y1="312.0" x2="1215" y2="312.0" stroke="#16150f" stroke-width="2"/><text x="1203" y="447.0" text-anchor="end" font-family="Helvetica Neue, Helvetica, Arial, sans-serif" font-size="16" font-weight="bold" fill="#16150f">−60</text><line x1="1207" y1="440.0" x2="1215" y2="440.0" stroke="#16150f" stroke-width="2"/><text x="1250" y="495.0" text-anchor="middle" font-family="Helvetica Neue, Helvetica, Arial, sans-serif" font-size="20" fill="#16150f">verzerrt / kratzt · Clip-LED</text><text x="1250" y="520.0" text-anchor="middle" font-family="Helvetica Neue, Helvetica, Arial, sans-serif" font-size="20" fill="#16150f">nicht mehr reparierbar</text></svg>