<svg xmlns="http://www.w3.org/2000/svg" width="1500" height="540" viewBox="0 0 1500 540"><defs><marker id="ah" markerWidth="11" markerHeight="11" refX="8" refY="5" orient="auto"><path d="M0,0 L10,5 L0,10 z" fill="#6b6a62"/></marker></defs><rect x="0" y="0" width="1500" height="540" fill="#f2f1ec"/><line x1="750" y1="60" x2="750" y2="510" stroke="#f2f1ec" stroke-width="2"/><text x="375" y="42" text-anchor="middle" font-family="Helvetica Neue, Helvetica, Arial, sans-serif" font-size="26" font-weight="bold" fill="#16150f">DCA group</text><text x="1125" y="42" text-anchor="middle" font-family="Helvetica Neue, Helvetica, Arial, sans-serif" font-size="26" font-weight="bold" fill="#16150f">Group (subgroup)</text><rect x="40" y="90" width="150" height="70" rx="12" ry="12" fill="#f2f1ec" stroke="#16150f" stroke-width="2"/><text x="115.0" y="133.0" text-anchor="middle" font-family="Helvetica Neue, Helvetica, Arial, sans-serif" font-size="22" font-weight="bold" fill="#16150f">Channel 1</text><rect x="40" y="190" width="150" height="70" rx="12" ry="12" fill="#f2f1ec" stroke="#16150f" stroke-width="2"/><text x="115.0" y="233.0" text-anchor="middle" font-family="Helvetica Neue, Helvetica, Arial, sans-serif" font-size="22" font-weight="bold" fill="#16150f">Channel 2</text><rect x="40" y="290" width="150" height="70" rx="12" ry="12" fill="#f2f1ec" stroke="#16150f" stroke-width="2"/><text x="115.0" y="333.0" text-anchor="middle" font-family="Helvetica Neue, Helvetica, Arial, sans-serif" font-size="22" font-weight="bold" fill="#16150f">Channel 3</text><rect x="560" y="150" width="150" height="150" rx="12" ry="12" fill="#16150f" stroke="#16150f" stroke-width="2"/><text x="635" y="225" text-anchor="middle" font-family="Helvetica Neue, Helvetica, Arial, sans-serif" font-size="24" font-weight="bold" fill="#f2f1ec">Master</text><line x1="190" y1="125.0" x2="558" y2="225" stroke="#6b6a62" stroke-width="3.0" marker-end="url(#ah)"/><line x1="190" y1="225.0" x2="558" y2="225" stroke="#6b6a62" stroke-width="3.0" marker-end="url(#ah)"/><line x1="190" y1="325.0" x2="558" y2="225" stroke="#6b6a62" stroke-width="3.0" marker-end="url(#ah)"/><rect x="300" y="400" width="170" height="70" rx="12" ry="12" fill="#f2f1ec" stroke="#e02718" stroke-width="2"/><text x="385.0" y="443.0" text-anchor="middle" font-family="Helvetica Neue, Helvetica, Arial, sans-serif" font-size="22" font-weight="bold" fill="#16150f">DCA fader</text><line x1="385.0" y1="400" x2="115.0" y2="160" stroke="#e02718" stroke-width="2.2" marker-end="url(#ah)" stroke-dasharray="6,6"/><line x1="385.0" y1="400" x2="115.0" y2="260" stroke="#e02718" stroke-width="2.2" marker-end="url(#ah)" stroke-dasharray="6,6"/><line x1="385.0" y1="400" x2="115.0" y2="360" stroke="#e02718" stroke-width="2.2" marker-end="url(#ah)" stroke-dasharray="6,6"/><text x="375" y="505" text-anchor="middle" font-family="Helvetica Neue, Helvetica, Arial, sans-serif" font-size="17" fill="#e02718">controls only level + mute (audio stays in the channel)</text><rect x="800" y="90" width="150" height="70" rx="12" ry="12" fill="#f2f1ec" stroke="#16150f" stroke-width="2"/><text x="875" y="129" text-anchor="middle" font-family="Helvetica Neue, Helvetica, Arial, sans-serif" font-size="22" font-weight="bold" fill="#16150f">Channel 1</text><rect x="800" y="190" width="150" height="70" rx="12" ry="12" fill="#f2f1ec" stroke="#16150f" stroke-width="2"/><text x="875" y="229" text-anchor="middle" font-family="Helvetica Neue, Helvetica, Arial, sans-serif" font-size="22" font-weight="bold" fill="#16150f">Channel 2</text><rect x="800" y="290" width="150" height="70" rx="12" ry="12" fill="#f2f1ec" stroke="#16150f" stroke-width="2"/><text x="875" y="329" text-anchor="middle" font-family="Helvetica Neue, Helvetica, Arial, sans-serif" font-size="22" font-weight="bold" fill="#16150f">Channel 3</text><rect x="1030" y="150" width="180" height="120" rx="12" ry="12" fill="#f2f1ec" stroke="#16150f" stroke-width="2"/><text x="1120.0" y="204.0" text-anchor="middle" font-family="Helvetica Neue, Helvetica, Arial, sans-serif" font-size="24" font-weight="bold" fill="#16150f">Group</text><text x="1120.0" y="234.0" text-anchor="middle" font-family="Helvetica Neue, Helvetica, Arial, sans-serif" font-size="18" font-weight="bold" fill="#e02718">EQ / Compressor</text><line x1="950" y1="125" x2="1028" y2="210.0" stroke="#6b6a62" stroke-width="3.0" marker-end="url(#ah)"/><line x1="950" y1="225" x2="1028" y2="210.0" stroke="#6b6a62" stroke-width="3.0" marker-end="url(#ah)"/><line x1="950" y1="325" x2="1028" y2="210.0" stroke="#6b6a62" stroke-width="3.0" marker-end="url(#ah)"/><rect x="1300" y="150" width="150" height="120" rx="12" ry="12" fill="#16150f" stroke="#16150f" stroke-width="2"/><text x="1375" y="215" text-anchor="middle" font-family="Helvetica Neue, Helvetica, Arial, sans-serif" font-size="24" font-weight="bold" fill="#f2f1ec">Master</text><line x1="1210" y1="210.0" x2="1298" y2="210" stroke="#6b6a62" stroke-width="3.0" marker-end="url(#ah)"/><text x="1125" y="505" text-anchor="middle" font-family="Helvetica Neue, Helvetica, Arial, sans-serif" font-size="17" fill="#16150f">audio runs together – processed as one</text></svg>