<svg xmlns="http://www.w3.org/2000/svg" width="1100" height="680" viewBox="0 0 1100 680"><defs><marker id="ahg" markerWidth="11" markerHeight="11" refX="8" refY="5" orient="auto"><path d="M0,0 L10,5 L0,10 z" fill="#2e8b57"/></marker><marker id="ahr" markerWidth="11" markerHeight="11" refX="8" refY="5" orient="auto"><path d="M0,0 L10,5 L0,10 z" fill="#e02718"/></marker><marker id="ahk" markerWidth="11" markerHeight="11" refX="8" refY="5" orient="auto"><path d="M0,0 L10,5 L0,10 z" fill="#6b6a62"/></marker></defs><rect x="0" y="0" width="1100" height="680" fill="#f2f1ec"/><rect x="40" y="40" width="1020" height="600" rx="16" ry="16" fill="#f2f1ec" stroke="#16150f" stroke-width="2.5"/><rect x="58" y="58" width="984" height="86" rx="10" ry="10" fill="#eceae2" stroke="#16150f" stroke-width="2"/><rect x="58" y="58" width="7" height="86" rx="3.5" ry="3.5" fill="#e02718"/><text x="550" y="96" text-anchor="middle" font-family="Helvetica Neue, Helvetica, Arial, sans-serif" font-size="23" font-weight="bold" fill="#16150f">1 · Werkzeugleiste</text><text x="550" y="124" text-anchor="middle" font-family="Helvetica Neue, Helvetica, Arial, sans-serif" font-size="17" font-weight="normal" fill="#6b6a62">Suche · Text · Theme · Show/Edit · Audience/Stage</text><rect x="58" y="160" width="250" height="462" rx="10" ry="10" fill="#eceae2" stroke="#16150f" stroke-width="2"/><rect x="58" y="160" width="7" height="462" rx="3.5" ry="3.5" fill="#e02718"/><text x="183" y="200" text-anchor="middle" font-family="Helvetica Neue, Helvetica, Arial, sans-serif" font-size="22" font-weight="bold" fill="#16150f">2</text><text x="183" y="232" text-anchor="middle" font-family="Helvetica Neue, Helvetica, Arial, sans-serif" font-size="19" font-weight="bold" fill="#16150f">Bibliothek &amp;</text><text x="183" y="258" text-anchor="middle" font-family="Helvetica Neue, Helvetica, Arial, sans-serif" font-size="16" font-weight="normal" fill="#6b6a62">Playlists</text><rect x="772" y="160" width="270" height="462" rx="10" ry="10" fill="#eceae2" stroke="#16150f" stroke-width="2"/><rect x="772" y="160" width="7" height="462" rx="3.5" ry="3.5" fill="#e02718"/><text x="907" y="200" text-anchor="middle" font-family="Helvetica Neue, Helvetica, Arial, sans-serif" font-size="22" font-weight="bold" fill="#16150f">5</text><text x="907" y="232" text-anchor="middle" font-family="Helvetica Neue, Helvetica, Arial, sans-serif" font-size="19" font-weight="bold" fill="#16150f">Vorschau &amp;</text><text x="907" y="258" text-anchor="middle" font-family="Helvetica Neue, Helvetica, Arial, sans-serif" font-size="16" font-weight="normal" fill="#6b6a62">Steuerung · Clear</text><rect x="324" y="160" width="432" height="298" rx="10" ry="10" fill="#eceae2" stroke="#16150f" stroke-width="2"/><rect x="324" y="160" width="7" height="298" rx="3.5" ry="3.5" fill="#e02718"/><text x="540" y="301" text-anchor="middle" font-family="Helvetica Neue, Helvetica, Arial, sans-serif" font-size="22" font-weight="bold" fill="#16150f">3 · Folienbereich</text><text x="540" y="329" text-anchor="middle" font-family="Helvetica Neue, Helvetica, Arial, sans-serif" font-size="16" font-weight="normal" fill="#6b6a62">Folien anklicken &amp; anzeigen</text><rect x="324" y="472" width="432" height="150" rx="10" ry="10" fill="#eceae2" stroke="#16150f" stroke-width="2"/><rect x="324" y="472" width="7" height="150" rx="3.5" ry="3.5" fill="#e02718"/><text x="540" y="543" text-anchor="middle" font-family="Helvetica Neue, Helvetica, Arial, sans-serif" font-size="22" font-weight="bold" fill="#16150f">4 · Media Bin</text><text x="540" y="571" text-anchor="middle" font-family="Helvetica Neue, Helvetica, Arial, sans-serif" font-size="16" font-weight="normal" fill="#6b6a62">Bilder &amp; Videos</text></svg>