<svg xmlns="http://www.w3.org/2000/svg" width="1100" height="450" viewBox="0 0 1100 450"><defs><marker id="ahg" markerWidth="11" markerHeight="11" refX="8" refY="5" orient="auto"><path d="M0,0 L10,5 L0,10 z" fill="#2e8b57"/></marker><marker id="ahr" markerWidth="11" markerHeight="11" refX="8" refY="5" orient="auto"><path d="M0,0 L10,5 L0,10 z" fill="#e02718"/></marker><marker id="ahk" markerWidth="11" markerHeight="11" refX="8" refY="5" orient="auto"><path d="M0,0 L10,5 L0,10 z" fill="#6b6a62"/></marker></defs><rect x="0" y="0" width="1100" height="450" fill="#f2f1ec"/><rect x="40" y="165" width="300" height="120" rx="14" ry="14" fill="#f2f1ec" stroke="#16150f" stroke-width="2"/><text x="190" y="232" text-anchor="middle" font-family="Helvetica Neue, Helvetica, Arial, sans-serif" font-size="26" font-weight="bold" fill="#16150f">Computer / Laptop</text><text x="190" y="263" text-anchor="middle" font-family="Helvetica Neue, Helvetica, Arial, sans-serif" font-size="19" font-weight="normal" fill="#6b6a62">ProPresenter</text><rect x="700" y="60" width="360" height="140" rx="14" ry="14" fill="#f2f1ec" stroke="#16150f" stroke-width="2"/><rect x="700" y="60" width="7" height="140" rx="3.5" ry="3.5" fill="#2e8b57"/><text x="880" y="105" text-anchor="middle" font-family="Helvetica Neue, Helvetica, Arial, sans-serif" font-size="25" font-weight="bold" fill="#16150f">Beamer / Fernseher</text><text x="880" y="138" text-anchor="middle" font-family="Helvetica Neue, Helvetica, Arial, sans-serif" font-size="19" font-weight="normal" fill="#6b6a62">für die Gemeinde</text><text x="880" y="170" text-anchor="middle" font-family="Helvetica Neue, Helvetica, Arial, sans-serif" font-size="20" font-weight="bold" fill="#2e8b57">Liedtexte, Folien, Bibel</text><rect x="700" y="250" width="360" height="140" rx="14" ry="14" fill="#f2f1ec" stroke="#16150f" stroke-width="2"/><rect x="700" y="250" width="7" height="140" rx="3.5" ry="3.5" fill="#e02718"/><text x="880" y="295" text-anchor="middle" font-family="Helvetica Neue, Helvetica, Arial, sans-serif" font-size="25" font-weight="bold" fill="#16150f">Stage-Monitor</text><text x="880" y="328" text-anchor="middle" font-family="Helvetica Neue, Helvetica, Arial, sans-serif" font-size="19" font-weight="normal" fill="#6b6a62">für das Team auf der Bühne</text><text x="880" y="360" text-anchor="middle" font-family="Helvetica Neue, Helvetica, Arial, sans-serif" font-size="20" font-weight="bold" fill="#e02718">z. B. aktuelle / nächste Zeile</text><line x1="345" y1="205" x2="694" y2="130" stroke="#2e8b57" stroke-width="3.4" marker-end="url(#ahg)"/><line x1="345" y1="245" x2="694" y2="320" stroke="#e02718" stroke-width="3.4" marker-end="url(#ahr)"/></svg>