<svg xmlns="http://www.w3.org/2000/svg" width="512" height="280" viewBox="0 0 512 280" font-family="Helvetica Neue, Helvetica, Arial, sans-serif"><rect width="512" height="280" fill="#f2f1ec"/>
<text x="24" y="36" text-anchor="start" font-size="22" font-weight="bold" fill="#16150f" font-family="Helvetica Neue, Helvetica, Arial, sans-serif">Eine Oktave — alle Tasten</text><rect x="24" y="60" width="58" height="180" rx="4" fill="#f2f1ec" stroke="#16150f" stroke-width="2"/>
<rect x="82" y="60" width="58" height="180" rx="4" fill="#f2f1ec" stroke="#16150f" stroke-width="2"/>
<rect x="140" y="60" width="58" height="180" rx="4" fill="#f2f1ec" stroke="#16150f" stroke-width="2"/>
<rect x="198" y="60" width="58" height="180" rx="4" fill="#f2f1ec" stroke="#16150f" stroke-width="2"/>
<rect x="256" y="60" width="58" height="180" rx="4" fill="#f2f1ec" stroke="#16150f" stroke-width="2"/>
<rect x="314" y="60" width="58" height="180" rx="4" fill="#f2f1ec" stroke="#16150f" stroke-width="2"/>
<rect x="372" y="60" width="58" height="180" rx="4" fill="#f2f1ec" stroke="#16150f" stroke-width="2"/>
<rect x="430" y="60" width="58" height="180" rx="4" fill="#f2f1ec" stroke="#16150f" stroke-width="2"/>
<rect x="64" y="60" width="35" height="112" rx="3" fill="#16150f"/>
<rect x="122" y="60" width="35" height="112" rx="3" fill="#16150f"/>
<rect x="238" y="60" width="35" height="112" rx="3" fill="#16150f"/>
<rect x="296" y="60" width="35" height="112" rx="3" fill="#16150f"/>
<rect x="354" y="60" width="35" height="112" rx="3" fill="#16150f"/>
<text x="53.0" y="224" text-anchor="middle" font-size="20" font-weight="bold" fill="#16150f" font-family="Helvetica Neue, Helvetica, Arial, sans-serif">C</text>
<text x="111.0" y="224" text-anchor="middle" font-size="20" font-weight="bold" fill="#16150f" font-family="Helvetica Neue, Helvetica, Arial, sans-serif">D</text>
<text x="169.0" y="224" text-anchor="middle" font-size="20" font-weight="bold" fill="#16150f" font-family="Helvetica Neue, Helvetica, Arial, sans-serif">E</text>
<text x="227.0" y="224" text-anchor="middle" font-size="20" font-weight="bold" fill="#16150f" font-family="Helvetica Neue, Helvetica, Arial, sans-serif">F</text>
<text x="285.0" y="224" text-anchor="middle" font-size="20" font-weight="bold" fill="#16150f" font-family="Helvetica Neue, Helvetica, Arial, sans-serif">G</text>
<text x="343.0" y="224" text-anchor="middle" font-size="20" font-weight="bold" fill="#16150f" font-family="Helvetica Neue, Helvetica, Arial, sans-serif">A</text>
<text x="401.0" y="224" text-anchor="middle" font-size="20" font-weight="bold" fill="#16150f" font-family="Helvetica Neue, Helvetica, Arial, sans-serif">B</text>
<text x="459.0" y="224" text-anchor="middle" font-size="20" font-weight="bold" fill="#16150f" font-family="Helvetica Neue, Helvetica, Arial, sans-serif">C</text>
<text x="81.5" y="160" text-anchor="middle" font-size="11" font-weight="bold" fill="#f2f1ec" font-family="ui-monospace, Menlo, Consolas, monospace">C#/Db</text>
<text x="139.5" y="160" text-anchor="middle" font-size="11" font-weight="bold" fill="#f2f1ec" font-family="ui-monospace, Menlo, Consolas, monospace">D#/Eb</text>
<text x="255.5" y="160" text-anchor="middle" font-size="11" font-weight="bold" fill="#f2f1ec" font-family="ui-monospace, Menlo, Consolas, monospace">F#/Gb</text>
<text x="313.5" y="160" text-anchor="middle" font-size="11" font-weight="bold" fill="#f2f1ec" font-family="ui-monospace, Menlo, Consolas, monospace">G#/Ab</text>
<text x="371.5" y="160" text-anchor="middle" font-size="11" font-weight="bold" fill="#f2f1ec" font-family="ui-monospace, Menlo, Consolas, monospace">A#/Bb</text>
</svg>
