<svg xmlns="http://www.w3.org/2000/svg" width="512" height="300" viewBox="0 0 512 300" font-family="Helvetica Neue, Helvetica, Arial, sans-serif"><rect width="512" height="300" fill="#f2f1ec"/>
<text x="24" y="40" text-anchor="start" font-size="20" font-weight="bold" fill="#16150f" font-family="Helvetica Neue, Helvetica, Arial, sans-serif">E-Dur — dieselbe Formel, anderer Startton</text><rect x="24" y="70" width="58" height="180" rx="4" fill="#f2f1ec" stroke="#16150f" stroke-width="2"/>
<rect x="82" y="70" width="58" height="180" rx="4" fill="#f2f1ec" stroke="#16150f" stroke-width="2"/>
<rect x="140" y="70" width="58" height="180" rx="4" fill="#f2f1ec" stroke="#16150f" stroke-width="2"/>
<rect x="198" y="70" width="58" height="180" rx="4" fill="#f2f1ec" stroke="#16150f" stroke-width="2"/>
<rect x="256" y="70" width="58" height="180" rx="4" fill="#f2f1ec" stroke="#16150f" stroke-width="2"/>
<rect x="314" y="70" width="58" height="180" rx="4" fill="#f2f1ec" stroke="#16150f" stroke-width="2"/>
<rect x="372" y="70" width="58" height="180" rx="4" fill="#f2f1ec" stroke="#16150f" stroke-width="2"/>
<rect x="430" y="70" width="58" height="180" rx="4" fill="#f2f1ec" stroke="#16150f" stroke-width="2"/>
<rect x="122" y="70" width="35" height="112" rx="3" fill="#16150f"/>
<rect x="180" y="70" width="35" height="112" rx="3" fill="#16150f"/>
<rect x="238" y="70" width="35" height="112" rx="3" fill="#16150f"/>
<rect x="354" y="70" width="35" height="112" rx="3" fill="#16150f"/>
<rect x="412" y="70" width="35" height="112" rx="3" fill="#16150f"/>
<text x="53.0" y="58" text-anchor="middle" font-size="20" font-weight="bold" fill="#16150f" font-family="Helvetica Neue, Helvetica, Arial, sans-serif">1</text>
<text x="139.5" y="58" text-anchor="middle" font-size="20" font-weight="bold" fill="#16150f" font-family="Helvetica Neue, Helvetica, Arial, sans-serif">2</text>
<text x="197.5" y="58" text-anchor="middle" font-size="20" font-weight="bold" fill="#16150f" font-family="Helvetica Neue, Helvetica, Arial, sans-serif">3</text>
<text x="227.0" y="58" text-anchor="middle" font-size="20" font-weight="bold" fill="#16150f" font-family="Helvetica Neue, Helvetica, Arial, sans-serif">4</text>
<text x="285.0" y="58" text-anchor="middle" font-size="20" font-weight="bold" fill="#16150f" font-family="Helvetica Neue, Helvetica, Arial, sans-serif">5</text>
<text x="371.5" y="58" text-anchor="middle" font-size="20" font-weight="bold" fill="#16150f" font-family="Helvetica Neue, Helvetica, Arial, sans-serif">6</text>
<text x="429.5" y="58" text-anchor="middle" font-size="20" font-weight="bold" fill="#16150f" font-family="Helvetica Neue, Helvetica, Arial, sans-serif">7</text>
<text x="459.0" y="58" text-anchor="middle" font-size="20" font-weight="bold" fill="#16150f" font-family="Helvetica Neue, Helvetica, Arial, sans-serif">8</text>
<path d="M197.5,264 L197.5,272 L227.0,272 L227.0,264" fill="none" stroke="#e02718" stroke-width="2.5"/>
<text x="212.25" y="292" text-anchor="middle" font-size="16" font-weight="bold" fill="#e02718" font-family="Helvetica Neue, Helvetica, Arial, sans-serif">½</text>
<path d="M429.5,264 L429.5,272 L459.0,272 L459.0,264" fill="none" stroke="#e02718" stroke-width="2.5"/>
<text x="444.25" y="292" text-anchor="middle" font-size="16" font-weight="bold" fill="#e02718" font-family="Helvetica Neue, Helvetica, Arial, sans-serif">½</text>
<circle cx="53.0" cy="220" r="20" fill="#e02718"/>
<text x="53.0" y="226" text-anchor="middle" font-size="17" font-weight="bold" fill="#f2f1ec" font-family="Helvetica Neue, Helvetica, Arial, sans-serif">E</text>
<circle cx="139.5" cy="162" r="16" fill="#e02718"/>
<text x="139.5" y="167" text-anchor="middle" font-size="13" font-weight="bold" fill="#f2f1ec" font-family="Helvetica Neue, Helvetica, Arial, sans-serif">F#</text>
<circle cx="197.5" cy="162" r="16" fill="#e02718"/>
<text x="197.5" y="167" text-anchor="middle" font-size="13" font-weight="bold" fill="#f2f1ec" font-family="Helvetica Neue, Helvetica, Arial, sans-serif">G#</text>
<circle cx="227.0" cy="220" r="20" fill="#e02718"/>
<text x="227.0" y="226" text-anchor="middle" font-size="17" font-weight="bold" fill="#f2f1ec" font-family="Helvetica Neue, Helvetica, Arial, sans-serif">A</text>
<circle cx="285.0" cy="220" r="20" fill="#e02718"/>
<text x="285.0" y="226" text-anchor="middle" font-size="17" font-weight="bold" fill="#f2f1ec" font-family="Helvetica Neue, Helvetica, Arial, sans-serif">B</text>
<circle cx="371.5" cy="162" r="16" fill="#e02718"/>
<text x="371.5" y="167" text-anchor="middle" font-size="13" font-weight="bold" fill="#f2f1ec" font-family="Helvetica Neue, Helvetica, Arial, sans-serif">C#</text>
<circle cx="429.5" cy="162" r="16" fill="#e02718"/>
<text x="429.5" y="167" text-anchor="middle" font-size="13" font-weight="bold" fill="#f2f1ec" font-family="Helvetica Neue, Helvetica, Arial, sans-serif">D#</text>
<circle cx="459.0" cy="220" r="20" fill="#e02718"/>
<text x="459.0" y="226" text-anchor="middle" font-size="17" font-weight="bold" fill="#f2f1ec" font-family="Helvetica Neue, Helvetica, Arial, sans-serif">E</text>
</svg>
