<svg xmlns="http://www.w3.org/2000/svg" width="512" height="312" viewBox="0 0 512 312" font-family="Helvetica Neue, Helvetica, Arial, sans-serif"><rect width="512" height="312" fill="#f2f1ec"/>
<text x="24" y="40" text-anchor="start" font-size="20" font-weight="bold" fill="#16150f" font-family="Helvetica Neue, Helvetica, Arial, sans-serif">Dreiklang: gestapelte Terzen</text><rect x="24" y="70" width="58" height="180" rx="4" fill="#f2f1ec" stroke="#16150f" stroke-width="2"/>
<rect x="82" y="70" width="58" height="180" rx="4" fill="#f2f1ec" stroke="#16150f" stroke-width="2"/>
<rect x="140" y="70" width="58" height="180" rx="4" fill="#f2f1ec" stroke="#16150f" stroke-width="2"/>
<rect x="198" y="70" width="58" height="180" rx="4" fill="#f2f1ec" stroke="#16150f" stroke-width="2"/>
<rect x="256" y="70" width="58" height="180" rx="4" fill="#f2f1ec" stroke="#16150f" stroke-width="2"/>
<rect x="314" y="70" width="58" height="180" rx="4" fill="#f2f1ec" stroke="#16150f" stroke-width="2"/>
<rect x="372" y="70" width="58" height="180" rx="4" fill="#f2f1ec" stroke="#16150f" stroke-width="2"/>
<rect x="430" y="70" width="58" height="180" rx="4" fill="#f2f1ec" stroke="#16150f" stroke-width="2"/>
<rect x="64" y="70" width="35" height="112" rx="3" fill="#16150f"/>
<rect x="122" y="70" width="35" height="112" rx="3" fill="#16150f"/>
<rect x="238" y="70" width="35" height="112" rx="3" fill="#16150f"/>
<rect x="296" y="70" width="35" height="112" rx="3" fill="#16150f"/>
<rect x="354" y="70" width="35" height="112" rx="3" fill="#16150f"/>
<circle cx="53.0" cy="220" r="20" fill="#16150f"/>
<text x="53.0" y="226" text-anchor="middle" font-size="17" font-weight="bold" fill="#f2f1ec" font-family="Helvetica Neue, Helvetica, Arial, sans-serif">C</text>
<circle cx="169.0" cy="220" r="20" fill="#16150f"/>
<text x="169.0" y="226" text-anchor="middle" font-size="17" font-weight="bold" fill="#f2f1ec" font-family="Helvetica Neue, Helvetica, Arial, sans-serif">E</text>
<circle cx="285.0" cy="220" r="20" fill="#16150f"/>
<text x="285.0" y="226" text-anchor="middle" font-size="17" font-weight="bold" fill="#f2f1ec" font-family="Helvetica Neue, Helvetica, Arial, sans-serif">G</text>
<circle cx="139.5" cy="162" r="16" fill="#e02718"/>
<text x="139.5" y="167" text-anchor="middle" font-size="13" font-weight="bold" fill="#f2f1ec" font-family="Helvetica Neue, Helvetica, Arial, sans-serif">Eb</text><text x="24" y="270" text-anchor="start" font-size="16" font-weight="bold" fill="#16150f" font-family="Helvetica Neue, Helvetica, Arial, sans-serif">C-Dur: C–E–G  (große + kleine Terz)</text><text x="24" y="294" text-anchor="start" font-size="16" font-weight="bold" fill="#e02718" font-family="Helvetica Neue, Helvetica, Arial, sans-serif">C-Moll: C–Eb–G  (Eb = rote Taste)</text>
</svg>
