<svg xmlns="http://www.w3.org/2000/svg" width="498" height="420" viewBox="0 0 498 420" font-family="Helvetica Neue, Helvetica, Arial, sans-serif"><rect width="498" height="420" fill="#f2f1ec"/>
<text x="24" y="80" text-anchor="start" font-size="15" font-weight="bold" fill="#16150f" font-family="Helvetica Neue, Helvetica, Arial, sans-serif">Grundstellung</text><text x="24" y="102" text-anchor="start" font-size="13" font-weight="bold" fill="#6b6a62" font-family="ui-monospace, Menlo, Consolas, monospace">C· E· G</text><rect x="174" y="40" width="30" height="96" rx="4" fill="#f2f1ec" stroke="#16150f" stroke-width="2"/>
<rect x="204" y="40" width="30" height="96" rx="4" fill="#f2f1ec" stroke="#16150f" stroke-width="2"/>
<rect x="234" y="40" width="30" height="96" rx="4" fill="#f2f1ec" stroke="#16150f" stroke-width="2"/>
<rect x="264" y="40" width="30" height="96" rx="4" fill="#f2f1ec" stroke="#16150f" stroke-width="2"/>
<rect x="294" y="40" width="30" height="96" rx="4" fill="#f2f1ec" stroke="#16150f" stroke-width="2"/>
<rect x="324" y="40" width="30" height="96" rx="4" fill="#f2f1ec" stroke="#16150f" stroke-width="2"/>
<rect x="354" y="40" width="30" height="96" rx="4" fill="#f2f1ec" stroke="#16150f" stroke-width="2"/>
<rect x="384" y="40" width="30" height="96" rx="4" fill="#f2f1ec" stroke="#16150f" stroke-width="2"/>
<rect x="414" y="40" width="30" height="96" rx="4" fill="#f2f1ec" stroke="#16150f" stroke-width="2"/>
<rect x="444" y="40" width="30" height="96" rx="4" fill="#f2f1ec" stroke="#16150f" stroke-width="2"/>
<rect x="195" y="40" width="18" height="60" rx="3" fill="#16150f"/>
<rect x="225" y="40" width="18" height="60" rx="3" fill="#16150f"/>
<rect x="285" y="40" width="18" height="60" rx="3" fill="#16150f"/>
<rect x="315" y="40" width="18" height="60" rx="3" fill="#16150f"/>
<rect x="345" y="40" width="18" height="60" rx="3" fill="#16150f"/>
<rect x="405" y="40" width="18" height="60" rx="3" fill="#16150f"/>
<rect x="435" y="40" width="18" height="60" rx="3" fill="#16150f"/>
<circle cx="189.0" cy="106" r="20" fill="#16150f"/>
<text x="189.0" y="112" text-anchor="middle" font-size="17" font-weight="bold" fill="#f2f1ec" font-family="Helvetica Neue, Helvetica, Arial, sans-serif">C</text>
<circle cx="249.0" cy="106" r="20" fill="#16150f"/>
<text x="249.0" y="112" text-anchor="middle" font-size="17" font-weight="bold" fill="#f2f1ec" font-family="Helvetica Neue, Helvetica, Arial, sans-serif">E</text>
<circle cx="309.0" cy="106" r="20" fill="#16150f"/>
<text x="309.0" y="112" text-anchor="middle" font-size="17" font-weight="bold" fill="#f2f1ec" font-family="Helvetica Neue, Helvetica, Arial, sans-serif">G</text><text x="24" y="210" text-anchor="start" font-size="15" font-weight="bold" fill="#16150f" font-family="Helvetica Neue, Helvetica, Arial, sans-serif">1. Umkehrung</text><text x="24" y="232" text-anchor="start" font-size="13" font-weight="bold" fill="#6b6a62" font-family="ui-monospace, Menlo, Consolas, monospace">E· G· C</text><rect x="174" y="170" width="30" height="96" rx="4" fill="#f2f1ec" stroke="#16150f" stroke-width="2"/>
<rect x="204" y="170" width="30" height="96" rx="4" fill="#f2f1ec" stroke="#16150f" stroke-width="2"/>
<rect x="234" y="170" width="30" height="96" rx="4" fill="#f2f1ec" stroke="#16150f" stroke-width="2"/>
<rect x="264" y="170" width="30" height="96" rx="4" fill="#f2f1ec" stroke="#16150f" stroke-width="2"/>
<rect x="294" y="170" width="30" height="96" rx="4" fill="#f2f1ec" stroke="#16150f" stroke-width="2"/>
<rect x="324" y="170" width="30" height="96" rx="4" fill="#f2f1ec" stroke="#16150f" stroke-width="2"/>
<rect x="354" y="170" width="30" height="96" rx="4" fill="#f2f1ec" stroke="#16150f" stroke-width="2"/>
<rect x="384" y="170" width="30" height="96" rx="4" fill="#f2f1ec" stroke="#16150f" stroke-width="2"/>
<rect x="414" y="170" width="30" height="96" rx="4" fill="#f2f1ec" stroke="#16150f" stroke-width="2"/>
<rect x="444" y="170" width="30" height="96" rx="4" fill="#f2f1ec" stroke="#16150f" stroke-width="2"/>
<rect x="195" y="170" width="18" height="60" rx="3" fill="#16150f"/>
<rect x="225" y="170" width="18" height="60" rx="3" fill="#16150f"/>
<rect x="285" y="170" width="18" height="60" rx="3" fill="#16150f"/>
<rect x="315" y="170" width="18" height="60" rx="3" fill="#16150f"/>
<rect x="345" y="170" width="18" height="60" rx="3" fill="#16150f"/>
<rect x="405" y="170" width="18" height="60" rx="3" fill="#16150f"/>
<rect x="435" y="170" width="18" height="60" rx="3" fill="#16150f"/>
<circle cx="249.0" cy="236" r="20" fill="#16150f"/>
<text x="249.0" y="242" text-anchor="middle" font-size="17" font-weight="bold" fill="#f2f1ec" font-family="Helvetica Neue, Helvetica, Arial, sans-serif">E</text>
<circle cx="309.0" cy="236" r="20" fill="#16150f"/>
<text x="309.0" y="242" text-anchor="middle" font-size="17" font-weight="bold" fill="#f2f1ec" font-family="Helvetica Neue, Helvetica, Arial, sans-serif">G</text>
<circle cx="399.0" cy="236" r="20" fill="#16150f"/>
<text x="399.0" y="242" text-anchor="middle" font-size="17" font-weight="bold" fill="#f2f1ec" font-family="Helvetica Neue, Helvetica, Arial, sans-serif">C</text><text x="24" y="340" text-anchor="start" font-size="15" font-weight="bold" fill="#16150f" font-family="Helvetica Neue, Helvetica, Arial, sans-serif">2. Umkehrung</text><text x="24" y="362" text-anchor="start" font-size="13" font-weight="bold" fill="#6b6a62" font-family="ui-monospace, Menlo, Consolas, monospace">G· C· E</text><rect x="174" y="300" width="30" height="96" rx="4" fill="#f2f1ec" stroke="#16150f" stroke-width="2"/>
<rect x="204" y="300" width="30" height="96" rx="4" fill="#f2f1ec" stroke="#16150f" stroke-width="2"/>
<rect x="234" y="300" width="30" height="96" rx="4" fill="#f2f1ec" stroke="#16150f" stroke-width="2"/>
<rect x="264" y="300" width="30" height="96" rx="4" fill="#f2f1ec" stroke="#16150f" stroke-width="2"/>
<rect x="294" y="300" width="30" height="96" rx="4" fill="#f2f1ec" stroke="#16150f" stroke-width="2"/>
<rect x="324" y="300" width="30" height="96" rx="4" fill="#f2f1ec" stroke="#16150f" stroke-width="2"/>
<rect x="354" y="300" width="30" height="96" rx="4" fill="#f2f1ec" stroke="#16150f" stroke-width="2"/>
<rect x="384" y="300" width="30" height="96" rx="4" fill="#f2f1ec" stroke="#16150f" stroke-width="2"/>
<rect x="414" y="300" width="30" height="96" rx="4" fill="#f2f1ec" stroke="#16150f" stroke-width="2"/>
<rect x="444" y="300" width="30" height="96" rx="4" fill="#f2f1ec" stroke="#16150f" stroke-width="2"/>
<rect x="195" y="300" width="18" height="60" rx="3" fill="#16150f"/>
<rect x="225" y="300" width="18" height="60" rx="3" fill="#16150f"/>
<rect x="285" y="300" width="18" height="60" rx="3" fill="#16150f"/>
<rect x="315" y="300" width="18" height="60" rx="3" fill="#16150f"/>
<rect x="345" y="300" width="18" height="60" rx="3" fill="#16150f"/>
<rect x="405" y="300" width="18" height="60" rx="3" fill="#16150f"/>
<rect x="435" y="300" width="18" height="60" rx="3" fill="#16150f"/>
<circle cx="309.0" cy="366" r="20" fill="#16150f"/>
<text x="309.0" y="372" text-anchor="middle" font-size="17" font-weight="bold" fill="#f2f1ec" font-family="Helvetica Neue, Helvetica, Arial, sans-serif">G</text>
<circle cx="399.0" cy="366" r="20" fill="#16150f"/>
<text x="399.0" y="372" text-anchor="middle" font-size="17" font-weight="bold" fill="#f2f1ec" font-family="Helvetica Neue, Helvetica, Arial, sans-serif">C</text>
<circle cx="459.0" cy="366" r="20" fill="#16150f"/>
<text x="459.0" y="372" text-anchor="middle" font-size="17" font-weight="bold" fill="#f2f1ec" font-family="Helvetica Neue, Helvetica, Arial, sans-serif">E</text>
</svg>
