<svg xmlns="http://www.w3.org/2000/svg" width="586" height="390" viewBox="0 0 586 390" font-family="Helvetica Neue, Helvetica, Arial, sans-serif"><rect width="586" height="390" fill="#f2f1ec"/>
<text x="24" y="30" text-anchor="start" font-size="19" font-weight="bold" fill="#16150f" font-family="Helvetica Neue, Helvetica, Arial, sans-serif">C-Dur → F-Dur (2. Umkehrung)</text><text x="24" y="105.0" text-anchor="start" font-size="14" font-weight="bold" fill="#6b6a62" font-family="ui-monospace, Menlo, Consolas, monospace">von:</text><rect x="194" y="40" width="46" height="130" rx="4" fill="#f2f1ec" stroke="#16150f" stroke-width="2"/>
<rect x="240" y="40" width="46" height="130" rx="4" fill="#f2f1ec" stroke="#16150f" stroke-width="2"/>
<rect x="286" y="40" width="46" height="130" rx="4" fill="#f2f1ec" stroke="#16150f" stroke-width="2"/>
<rect x="332" y="40" width="46" height="130" rx="4" fill="#f2f1ec" stroke="#16150f" stroke-width="2"/>
<rect x="378" y="40" width="46" height="130" rx="4" fill="#f2f1ec" stroke="#16150f" stroke-width="2"/>
<rect x="424" y="40" width="46" height="130" rx="4" fill="#f2f1ec" stroke="#16150f" stroke-width="2"/>
<rect x="470" y="40" width="46" height="130" rx="4" fill="#f2f1ec" stroke="#16150f" stroke-width="2"/>
<rect x="516" y="40" width="46" height="130" rx="4" fill="#f2f1ec" stroke="#16150f" stroke-width="2"/>
<rect x="226" y="40" width="28" height="81" rx="3" fill="#16150f"/>
<rect x="272" y="40" width="28" height="81" rx="3" fill="#16150f"/>
<rect x="364" y="40" width="28" height="81" rx="3" fill="#16150f"/>
<rect x="410" y="40" width="28" height="81" rx="3" fill="#16150f"/>
<rect x="456" y="40" width="28" height="81" rx="3" fill="#16150f"/>
<circle cx="217.0" cy="140" r="20" fill="#16150f"/>
<text x="217.0" y="146" text-anchor="middle" font-size="17" font-weight="bold" fill="#f2f1ec" font-family="Helvetica Neue, Helvetica, Arial, sans-serif">C</text>
<circle cx="309.0" cy="140" r="20" fill="#16150f"/>
<text x="309.0" y="146" text-anchor="middle" font-size="17" font-weight="bold" fill="#f2f1ec" font-family="Helvetica Neue, Helvetica, Arial, sans-serif">E</text>
<circle cx="401.0" cy="140" r="20" fill="#16150f"/>
<text x="401.0" y="146" text-anchor="middle" font-size="17" font-weight="bold" fill="#f2f1ec" font-family="Helvetica Neue, Helvetica, Arial, sans-serif">G</text><text x="24" y="275.0" text-anchor="start" font-size="14" font-weight="bold" fill="#6b6a62" font-family="ui-monospace, Menlo, Consolas, monospace">nach:</text><rect x="194" y="210" width="46" height="130" rx="4" fill="#f2f1ec" stroke="#16150f" stroke-width="2"/>
<rect x="240" y="210" width="46" height="130" rx="4" fill="#f2f1ec" stroke="#16150f" stroke-width="2"/>
<rect x="286" y="210" width="46" height="130" rx="4" fill="#f2f1ec" stroke="#16150f" stroke-width="2"/>
<rect x="332" y="210" width="46" height="130" rx="4" fill="#f2f1ec" stroke="#16150f" stroke-width="2"/>
<rect x="378" y="210" width="46" height="130" rx="4" fill="#f2f1ec" stroke="#16150f" stroke-width="2"/>
<rect x="424" y="210" width="46" height="130" rx="4" fill="#f2f1ec" stroke="#16150f" stroke-width="2"/>
<rect x="470" y="210" width="46" height="130" rx="4" fill="#f2f1ec" stroke="#16150f" stroke-width="2"/>
<rect x="516" y="210" width="46" height="130" rx="4" fill="#f2f1ec" stroke="#16150f" stroke-width="2"/>
<rect x="226" y="210" width="28" height="81" rx="3" fill="#16150f"/>
<rect x="272" y="210" width="28" height="81" rx="3" fill="#16150f"/>
<rect x="364" y="210" width="28" height="81" rx="3" fill="#16150f"/>
<rect x="410" y="210" width="28" height="81" rx="3" fill="#16150f"/>
<rect x="456" y="210" width="28" height="81" rx="3" fill="#16150f"/>
<circle cx="217.0" cy="310" r="20" fill="#16150f"/>
<text x="217.0" y="316" text-anchor="middle" font-size="17" font-weight="bold" fill="#f2f1ec" font-family="Helvetica Neue, Helvetica, Arial, sans-serif">C</text>
<circle cx="355.0" cy="310" r="20" fill="#e02718"/>
<text x="355.0" y="316" text-anchor="middle" font-size="17" font-weight="bold" fill="#f2f1ec" font-family="Helvetica Neue, Helvetica, Arial, sans-serif">F</text>
<circle cx="447.0" cy="310" r="20" fill="#e02718"/>
<text x="447.0" y="316" text-anchor="middle" font-size="17" font-weight="bold" fill="#f2f1ec" font-family="Helvetica Neue, Helvetica, Arial, sans-serif">A</text><text x="24" y="374" text-anchor="start" font-size="14" font-weight="bold" fill="#6b6a62" font-family="Helvetica Neue, Helvetica, Arial, sans-serif">schwarz = bleibt liegen · rot = bewegt sich</text>
</svg>
